<svg width="80" height="25" viewBox="0 0 80 25" fill="none" xmlns="http://www.w3.org/2000/svg">
<g clip-path="url(#clip0_5267_922)">
<path d="M58.4496 20.2622C56.4819 20.2622 54.9476 19.4653 53.9634 18.0134V19.9769H49.8816V0.404297H53.9634V7.96588C54.9476 6.51466 56.4813 5.7171 58.4502 5.7171C62.1265 5.7171 65.0506 8.96222 65.0506 12.975C65.0506 16.9884 62.1265 20.2616 58.4502 20.2616L58.4496 20.2622ZM57.5237 9.53174C55.5262 9.53174 53.9634 11.0397 53.9634 12.975C53.9634 14.9397 55.5262 16.4189 57.5231 16.4189C59.4927 16.4189 61.0847 14.911 61.0847 12.975C61.0847 11.0683 59.4927 9.53174 57.5237 9.53174V9.53174Z" fill="#FCFCFA"/>
<path d="M79.4282 6.00195L71.525 24.6172H67.1541L69.7879 18.8391L64.3169 6.00195H68.7169L71.8722 14.1709L75.0288 6.00195H79.4282Z" fill="#FCFCFA"/>
<path d="M47.9969 19.9775H43.915V0.404297H47.9969V19.9775Z" fill="#FCFCFA"/>
<path d="M42.2909 19.9773H38.4409V18.2413C37.6012 19.6072 36.2698 20.262 34.3882 20.262C31.8698 20.262 29.9876 18.412 29.9876 16.0779C29.9876 13.1462 32.622 11.6084 36.6171 11.6084H38.4403V11.2956C38.4403 10.0431 37.3408 8.98948 35.7197 8.98948C34.1854 8.98948 32.6803 9.8157 31.8983 10.7834L29.6695 8.44924C30.9141 6.85472 33.3457 5.71631 35.7197 5.71631C39.7439 5.71631 42.2909 8.02241 42.2909 11.3809V19.9773ZM38.4409 14.1139H36.4143C34.6195 14.1139 33.5485 14.6547 33.5485 15.7078C33.5485 16.5614 34.2431 17.1309 35.3433 17.1309C37.138 17.1309 38.4409 15.9358 38.4409 14.5407V14.1139Z" fill="#FCFCFA"/>
<path d="M28.5377 12.0647V19.9775H24.4558V12.5769C24.4558 10.7555 23.3271 9.55978 21.6478 9.55978C19.9399 9.55978 18.8397 10.7555 18.8397 12.5769V19.9775H14.7578V0.404297H18.8397V7.82381C19.7371 6.486 21.0685 5.7171 22.6909 5.7171C26.3374 5.7171 28.5377 8.10856 28.5377 12.0647V12.0647Z" fill="#FCFCFA"/>
<path d="M13.1535 19.8067C12.6325 20.0628 11.8214 20.2049 11.0685 20.2049C7.73952 20.2049 5.39471 18.1269 5.39471 14.5122V0.404297H9.47657V6.00186H12.9792V9.81588H9.47657V14.3128C9.47657 15.6226 10.4893 16.4476 11.6763 16.4476C12.0818 16.4476 12.6319 16.3628 12.9501 16.2488L13.1535 19.8067Z" fill="#FCFCFA"/>
<path d="M4.61086 7.90875C4.6109 8.19662 4.55328 8.48167 4.44127 8.74764C4.32927 9.01361 4.16508 9.25529 3.95809 9.45887C3.75109 9.66245 3.50534 9.82395 3.23487 9.93415C2.96439 10.0443 2.67449 10.1011 2.38171 10.1011C2.08894 10.1012 1.79902 10.0445 1.52851 9.93438C1.25801 9.82426 1.01221 9.66282 0.805159 9.4593C0.598106 9.25577 0.433851 9.01414 0.321773 8.74821C0.209695 8.48227 0.151988 8.19723 0.151947 7.90936C0.151947 7.32798 0.386836 6.77042 0.80494 6.35933C1.22304 5.94823 1.79012 5.71729 2.3814 5.71729C2.97269 5.71729 3.53976 5.94823 3.95787 6.35933C4.37597 6.77042 4.61086 7.32798 4.61086 7.90936V7.90875Z" fill="#18A5C6"/>
</g>
<defs>
<clipPath id="clip0_5267_922">
<rect width="80" height="25" fill="white"/>
</clipPath>
</defs>
</svg>
